<?xml version="1.0" standalone="no"?>
<!DOCTYPE svg PUBLIC "-//W3C//DTD SVG 20010904//EN"
 "http://www.w3.org/TR/2001/REC-SVG-20010904/DTD/svg10.dtd">
<svg version="1.0" xmlns="http://www.w3.org/2000/svg"
 width="2500.000000pt" height="2500.000000pt" viewBox="0 0 2500.000000 2500.000000"
 preserveAspectRatio="xMidYMid meet">
<metadata>
Created by potrace 1.14, written by Peter Selinger 2001-2017
</metadata>
<g transform="translate(0.000000,2500.000000) scale(0.100000,-0.100000)"
fill="#000000" stroke="none">
<path d="M13457 17463 c-2 -2 -688 -14 -1003 -18 -255 -2 -311 -11 -376 -57
-16 -11 -28 -16 -28 -13 0 4 -19 -13 -42 -38 -45 -46 -93 -102 -88 -102 1 0
-5 -17 -13 -38 -38 -90 -41 -223 -6 -297 36 -77 45 -93 57 -97 6 -3 12 -11 12
-17 0 -15 42 -56 57 -56 6 0 13 -6 16 -12 3 -7 22 -21 43 -32 22 -10 46 -22
54 -26 34 -17 90 -22 219 -22 157 1 1055 12 1241 16 136 3 150 1 150 -20 0 -8
5 -14 10 -14 6 0 10 -4 10 -9 0 -10 60 -112 71 -121 3 -3 12 -20 20 -37 8 -18
16 -33 20 -33 3 0 11 -16 19 -35 8 -19 17 -35 22 -35 4 0 8 -6 8 -14 0 -8 3
-16 8 -18 4 -1 18 -24 32 -50 13 -27 28 -48 32 -48 5 0 7 -3 6 -7 -1 -5 10
-27 25 -51 15 -24 32 -54 37 -67 5 -14 14 -25 20 -25 5 0 9 -3 8 -7 -1 -5 14
-36 35 -71 20 -35 37 -67 37 -72 0 -4 4 -10 8 -12 7 -3 65 -98 115 -190 12
-21 24 -38 29 -38 4 0 8 -9 8 -20 0 -11 4 -20 8 -20 5 0 14 -16 22 -35 7 -19
16 -32 20 -30 3 2 12 -12 19 -31 7 -18 17 -34 22 -34 5 0 9 -5 9 -11 0 -7 18
-40 40 -75 22 -35 40 -68 40 -74 0 -6 4 -9 8 -6 4 2 9 -5 9 -16 1 -12 6 -24
12 -27 5 -3 28 -40 52 -81 48 -85 78 -118 91 -98 6 10 8 10 8 1 0 -7 7 -10 15
-7 8 4 12 11 8 18 -4 6 2 4 12 -4 10 -8 16 -10 12 -3 -4 6 -3 14 3 18 5 3 10
2 10 -3 0 -5 7 -9 15 -9 8 0 12 4 9 9 -4 5 0 9 7 7 34 -4 70 2 64 11 -8 13 18
8 27 -5 5 -6 8 -5 8 4 0 7 6 11 15 7 8 -3 15 -1 15 4 0 5 9 7 20 5 11 -2 20 0
20 6 0 5 5 9 11 9 5 0 7 -4 4 -10 -3 -6 1 -7 9 -4 9 3 13 11 10 16 -4 6 3 5
15 -1 13 -7 21 -8 21 -2 0 6 7 8 15 5 9 -4 15 0 15 7 0 11 3 11 10 -1 5 -8 10
-10 10 -4 0 11 35 28 53 25 4 -1 7 4 7 10 0 5 4 8 9 4 5 -3 12 -1 16 5 9 15
27 12 20 -2 -4 -7 0 -5 8 4 11 14 16 15 27 5 10 -9 11 -9 6 1 -4 6 -2 12 4 12
6 0 8 5 4 12 -5 7 -3 8 6 3 7 -4 16 -2 21 6 7 12 9 12 9 0 0 -10 5 -8 18 6 9
11 23 18 31 15 8 -3 11 0 7 7 -4 6 -2 11 4 11 6 0 9 4 5 9 -3 6 5 19 17 31 21
19 21 21 3 15 -19 -6 -19 -6 -3 8 10 8 15 17 11 20 -3 4 -2 12 3 19 15 21 17
68 3 68 -7 0 -10 3 -6 6 5 6 -14 49 -43 94 -36 57 -120 204 -120 210 0 4 -7
13 -15 20 -8 7 -13 16 -10 20 3 5 2 10 -3 12 -4 1 -27 37 -51 78 -24 41 -52
87 -62 102 -11 15 -19 30 -19 33 0 3 -12 24 -27 48 -15 23 -38 62 -51 87 -14
25 -30 52 -37 60 -6 8 -15 22 -19 30 -3 8 -17 33 -31 55 -14 22 -28 47 -32 55
-4 8 -10 17 -14 20 -4 3 -9 12 -11 20 -2 8 -11 23 -20 34 -10 10 -15 23 -12
27 2 4 -4 12 -13 18 -10 5 -17 12 -15 15 3 7 -16 41 -48 91 -11 17 -27 47 -37
68 -10 20 -21 37 -25 37 -5 0 -8 7 -8 15 0 8 -4 15 -8 15 -4 0 -13 12 -20 28
-6 15 -23 45 -37 67 -14 22 -41 68 -61 102 -19 35 -40 65 -45 69 -5 3 -7 10
-4 15 4 5 -1 12 -9 15 -9 3 -16 15 -16 25 0 10 -4 19 -10 19 -5 0 -10 4 -10 9
0 13 -72 134 -85 143 -5 4 -7 8 -3 8 9 0 -9 23 -64 85 -43 48 -133 99 -193
111 -32 6 -602 13 -608 7z"/>
<path d="M17657 16124 c-2 -3 -13 -6 -23 -8 -20 -5 -78 -29 -182 -77 -34 -16
-64 -29 -67 -29 -2 0 -34 -13 -69 -30 -74 -34 -139 -62 -146 -65 -3 -1 -27
-12 -55 -24 -58 -27 -86 -38 -100 -41 -5 -1 -18 -9 -27 -17 -10 -9 -18 -13
-18 -9 0 3 -11 -1 -24 -10 -14 -8 -26 -15 -28 -14 -3 1 -59 -23 -168 -73 -25
-11 -47 -21 -50 -22 -16 -5 -69 -28 -95 -40 -46 -21 -217 -97 -485 -215 -91
-40 -192 -85 -225 -100 -33 -15 -85 -38 -115 -51 -30 -12 -58 -28 -62 -33 -4
-6 -8 -8 -8 -3 0 4 -15 0 -32 -10 -18 -9 -37 -18 -43 -19 -12 -3 -75 -29 -135
-57 -25 -12 -47 -22 -50 -22 -8 -2 -51 -21 -105 -45 -100 -45 -115 -51 -117
-48 -2 1 -14 -5 -28 -15 -13 -9 -32 -17 -42 -17 -10 0 -18 -4 -18 -9 0 -5 -13
-12 -30 -16 -16 -4 -30 -11 -30 -16 0 -6 -6 -9 -12 -8 -15 3 -70 -21 -79 -34
-3 -5 -9 -8 -13 -8 -11 1 -40 -10 -77 -30 -20 -10 -44 -19 -53 -19 -9 0 -16
-5 -16 -11 0 -5 -4 -8 -9 -5 -5 3 -14 -1 -21 -10 -7 -8 -19 -13 -27 -10 -7 3
-13 1 -13 -4 0 -6 -4 -10 -9 -10 -5 0 -40 -14 -78 -32 -37 -17 -70 -32 -73
-33 -15 -5 -70 -28 -105 -45 -102 -47 -141 -63 -147 -62 -5 1 -8 -2 -8 -6 0
-4 -9 -8 -20 -9 -11 -1 -35 -12 -53 -25 -17 -13 -33 -22 -35 -20 -1 1 -19 -5
-40 -14 -20 -9 -46 -19 -57 -21 -10 -2 -22 -8 -25 -12 -3 -5 -18 -13 -33 -16
-15 -4 -27 -12 -27 -18 0 -6 -3 -8 -6 -4 -4 3 -24 -3 -45 -13 -21 -11 -43 -20
-50 -20 -6 0 -23 -9 -37 -19 -15 -10 -30 -19 -35 -20 -28 -3 -57 -15 -57 -22
0 -5 -6 -9 -14 -9 -7 0 -44 -14 -82 -32 -38 -17 -71 -32 -74 -33 -3 -1 -22 -9
-42 -18 -21 -9 -55 -25 -75 -34 -21 -9 -40 -17 -43 -18 -3 -1 -23 -10 -45 -20
-22 -10 -43 -18 -47 -17 -5 1 -8 -3 -8 -9 0 -5 -4 -8 -9 -4 -5 3 -12 1 -16 -5
-3 -5 -15 -10 -26 -10 -10 0 -19 -4 -19 -10 0 -5 -5 -10 -11 -10 -6 0 -25 -6
-42 -14 -45 -20 -70 -29 -82 -30 -10 -1 -35 18 -35 28 0 2 -42 67 -93 143 -51
77 -103 155 -115 174 -83 130 -106 164 -116 171 -6 4 -7 8 -3 8 4 0 3 6 -3 13
-6 6 -31 43 -55 80 -23 37 -51 77 -60 88 -10 10 -14 19 -9 19 5 0 4 4 -2 8 -6
4 -28 35 -49 70 -21 34 -42 62 -46 62 -5 0 -8 3 -7 8 1 4 -15 33 -35 64 -21
32 -37 61 -36 64 0 4 -6 11 -15 16 -9 5 -16 16 -16 23 0 8 -3 15 -7 15 -7 0
-43 56 -46 70 0 3 -4 10 -9 15 -4 6 -19 24 -33 41 -14 18 -25 37 -25 43 0 6
-24 35 -54 65 -68 67 -135 92 -222 82 -31 -3 -62 -10 -69 -16 -6 -5 -15 -7
-18 -3 -4 3 -7 1 -7 -5 0 -7 -6 -12 -13 -12 -6 0 -31 -17 -55 -39 -23 -21 -42
-37 -42 -35 0 2 -10 -7 -23 -19 -28 -27 -62 -57 -197 -172 -58 -50 -111 -96
-118 -102 -7 -7 -18 -13 -23 -13 -6 0 -8 -4 -5 -8 3 -5 -6 -15 -19 -22 -14 -7
-25 -17 -25 -22 0 -4 -5 -8 -10 -8 -6 0 -23 -12 -38 -27 -46 -45 -134 -123
-141 -123 -3 -1 -26 -21 -51 -45 -25 -25 -48 -45 -51 -45 -3 0 -34 -26 -68
-57 -35 -32 -66 -58 -70 -58 -3 -1 -27 -21 -52 -45 -25 -25 -66 -62 -92 -83
-26 -21 -63 -53 -82 -70 -57 -52 -64 -57 -75 -57 -6 0 -8 -4 -5 -10 3 -5 2
-10 -2 -10 -5 0 -23 -13 -41 -29 -17 -17 -32 -27 -32 -23 0 4 -9 -6 -19 -21
-10 -16 -21 -27 -24 -25 -5 3 -97 -75 -153 -130 -13 -13 -24 -21 -24 -18 0 3
-10 -5 -23 -17 -12 -12 -51 -47 -86 -77 -36 -30 -69 -60 -75 -65 -6 -6 -38
-33 -71 -60 -32 -28 -67 -57 -76 -65 -10 -8 -24 -19 -31 -25 -7 -5 -21 -16
-30 -23 -15 -12 -20 -11 -39 7 -13 12 -27 21 -31 21 -5 0 -6 5 -3 10 3 6 -1
10 -9 10 -8 0 -19 6 -23 13 -8 12 -47 46 -123 107 -24 19 -49 41 -56 48 -7 6
-17 12 -23 12 -6 0 -11 5 -11 10 0 6 -7 10 -16 10 -8 0 -12 5 -9 10 3 6 0 10
-8 10 -8 0 -22 9 -32 20 -10 11 -22 20 -27 20 -9 0 -23 10 -58 42 -10 9 -21
14 -24 11 -3 -4 -6 -1 -6 5 0 7 -7 12 -15 12 -8 0 -15 5 -15 11 0 5 -4 8 -9 5
-5 -4 -11 -3 -13 1 -4 10 -54 44 -93 63 -16 8 -32 17 -35 20 -17 17 -306 165
-370 190 -19 7 -54 22 -77 32 -72 31 -97 41 -117 45 -11 2 -25 8 -33 14 -7 6
-13 8 -13 4 0 -4 -7 -2 -15 5 -8 7 -15 9 -15 6 0 -4 -10 -2 -21 5 -12 6 -52
20 -88 31 -64 19 -76 22 -124 34 -39 9 -42 10 -62 17 -11 3 -31 8 -45 11 -14
3 -34 7 -45 10 -82 19 -117 26 -146 30 -45 6 -102 15 -169 26 -30 6 -91 12
-135 16 -44 3 -91 7 -105 10 -68 11 -515 3 -625 -12 -289 -39 -376 -54 -545
-98 -77 -20 -118 -32 -200 -59 -52 -17 -98 -32 -102 -33 -5 -1 -11 -3 -15 -4
-5 -1 -11 -2 -15 -1 -5 0 -8 -3 -8 -9 0 -5 -6 -10 -14 -10 -11 0 -84 -28 -186
-72 -14 -6 -27 -12 -30 -13 -46 -13 -410 -209 -421 -226 -3 -6 -9 -9 -12 -7
-4 1 -16 -5 -27 -14 -11 -10 -23 -18 -27 -18 -3 0 -21 -11 -39 -25 -18 -14
-35 -25 -38 -25 -3 0 -14 -7 -23 -15 -10 -7 -58 -44 -108 -81 -49 -37 -95 -75
-102 -83 -7 -9 -13 -11 -13 -6 0 6 -3 6 -8 -1 -4 -5 -47 -45 -97 -88 -100 -87
-315 -304 -315 -317 0 -5 -3 -9 -7 -9 -5 0 -30 -28 -58 -62 -66 -82 -87 -106
-108 -129 -9 -10 -14 -19 -11 -19 3 0 -13 -22 -35 -49 -23 -27 -41 -52 -41
-55 0 -4 -5 -12 -10 -19 -41 -48 -50 -62 -50 -74 0 -7 -7 -16 -15 -19 -8 -4
-15 -12 -15 -20 0 -8 -4 -14 -10 -14 -5 0 -10 -5 -10 -10 0 -6 -16 -35 -35
-65 -19 -30 -31 -55 -27 -55 4 0 -1 -5 -11 -11 -9 -6 -15 -14 -12 -20 4 -5 1
-9 -5 -9 -6 0 -9 -4 -6 -9 3 -5 -1 -14 -9 -21 -8 -7 -15 -16 -15 -21 0 -5 -12
-28 -27 -52 -14 -23 -26 -43 -25 -44 0 -1 -17 -41 -38 -88 -22 -47 -39 -86
-37 -88 1 -2 -5 -14 -13 -27 -9 -14 -28 -56 -42 -95 -14 -38 -29 -79 -34 -90
-4 -11 -8 -22 -8 -25 -1 -3 -4 -9 -7 -15 -4 -5 -10 -23 -14 -40 -12 -45 -12
-45 -15 -47 -1 -2 -3 -10 -5 -18 -2 -8 -20 -71 -40 -140 -19 -69 -38 -138 -41
-155 -2 -16 -7 -37 -9 -45 -2 -8 -7 -28 -10 -45 -3 -16 -7 -41 -9 -55 -15 -78
-36 -224 -41 -285 -3 -38 -8 -83 -10 -100 -6 -40 -7 -515 -2 -540 3 -11 8 -54
11 -95 8 -91 32 -267 41 -300 2 -8 7 -31 10 -50 7 -44 33 -154 46 -200 6 -19
11 -42 12 -50 2 -8 5 -19 8 -25 4 -5 10 -23 14 -40 4 -16 9 -37 11 -45 2 -8
13 -42 25 -75 11 -33 22 -64 23 -70 1 -5 10 -27 19 -49 9 -21 17 -43 17 -49 0
-5 12 -35 26 -65 15 -31 27 -62 28 -70 1 -7 7 -17 12 -20 5 -4 10 -14 12 -22
5 -24 83 -182 104 -212 11 -16 17 -28 14 -28 -4 0 5 -18 19 -40 14 -22 25 -44
25 -50 0 -5 4 -10 9 -10 5 0 12 -8 15 -18 10 -25 37 -72 66 -112 14 -19 30
-42 35 -51 30 -51 79 -119 86 -119 4 0 11 -9 14 -21 4 -12 14 -29 23 -38 29
-31 52 -61 47 -61 -3 0 10 -16 30 -35 19 -20 35 -38 35 -41 0 -4 42 -54 85
-99 11 -12 39 -42 62 -67 23 -25 44 -43 47 -40 3 3 6 0 6 -6 0 -14 47 -62 54
-54 3 3 6 0 6 -6 0 -13 58 -72 71 -72 5 0 9 -7 9 -15 0 -8 5 -15 11 -15 7 0
19 -8 28 -17 26 -29 139 -123 147 -123 3 0 14 -8 23 -18 9 -10 39 -35 66 -55
61 -44 211 -148 233 -162 18 -11 172 -101 207 -122 30 -17 139 -70 145 -70 3
0 24 -12 47 -26 24 -15 43 -25 43 -22 0 3 22 -6 50 -20 27 -14 56 -25 65 -25
8 0 15 -4 15 -10 0 -5 3 -9 8 -8 4 1 21 -4 37 -11 61 -25 230 -82 333 -112
119 -35 114 -33 197 -49 33 -7 67 -14 75 -17 8 -3 24 -8 35 -9 28 -5 154 -25
190 -30 17 -2 40 -6 52 -8 134 -27 759 -27 888 -1 11 2 38 6 60 9 69 9 117 17
195 32 41 9 86 18 100 20 14 3 43 10 65 16 22 5 49 12 61 14 12 2 40 10 63 18
22 9 41 13 41 10 0 -2 14 2 30 11 16 9 30 14 30 11 0 -2 51 14 113 36 161 57
169 60 197 75 14 7 28 13 32 13 4 0 51 21 105 47 54 26 104 48 110 49 7 1 20
9 29 18 8 9 19 14 24 11 4 -3 11 2 14 11 3 8 10 12 16 9 5 -3 10 -1 10 4 0 6
9 11 20 11 11 0 20 4 20 8 0 4 12 13 28 19 33 15 77 41 119 71 17 12 36 22 42
22 6 0 11 5 11 10 0 6 7 10 15 10 8 0 15 4 15 9 0 5 14 14 30 21 16 7 30 16
30 21 0 4 8 10 19 14 10 3 31 17 47 31 16 14 46 37 67 50 21 14 46 32 56 42
34 32 61 52 72 52 5 0 7 5 4 10 -3 6 -2 10 2 10 5 0 23 13 41 29 17 17 32 28
32 26 0 -2 21 16 46 41 26 24 51 44 57 44 6 0 8 3 5 6 -3 3 25 34 63 70 37 35
65 64 61 64 -4 1 4 7 18 15 14 8 21 14 17 15 -4 0 5 13 20 29 57 58 122 131
117 131 -3 0 1 6 8 14 28 27 83 97 81 101 -2 3 13 21 33 41 20 19 33 38 30 41
-3 3 2 13 12 22 23 21 62 78 62 90 0 5 3 11 8 13 10 4 62 86 62 98 0 5 4 10 9
10 5 0 12 8 15 18 9 23 37 76 45 82 3 3 22 37 41 75 19 39 38 72 43 73 4 2 7
7 7 12 0 4 18 47 40 94 22 47 40 89 40 93 0 5 8 24 19 43 16 31 74 181 71 188
0 1 6 15 14 31 9 16 13 31 10 34 -3 3 2 19 10 36 9 17 16 33 16 36 1 3 2 10 5
17 10 32 34 125 38 148 3 14 15 63 27 110 32 122 35 250 8 326 -12 32 -28 70
-37 84 -21 34 -104 120 -115 120 -5 0 -17 6 -25 14 -50 44 -226 68 -312 42
-57 -18 -119 -48 -119 -58 0 -4 -4 -8 -10 -8 -5 0 -22 -12 -37 -28 -36 -35
-97 -112 -88 -112 3 0 0 -10 -7 -22 -15 -28 -12 -19 -42 -149 -40 -175 -99
-366 -151 -489 -45 -107 -107 -235 -117 -241 -5 -3 -8 -8 -6 -10 1 -2 -8 -22
-21 -44 -14 -22 -24 -43 -23 -47 1 -5 -2 -8 -7 -8 -5 0 -11 -8 -15 -17 -11
-34 -92 -158 -128 -197 -9 -10 -15 -22 -13 -26 3 -5 -2 -11 -11 -14 -9 -4 -14
-9 -10 -13 3 -3 -3 -13 -14 -20 -11 -8 -18 -19 -15 -24 4 -5 -1 -9 -9 -9 -9 0
-16 -4 -16 -9 0 -9 -33 -50 -85 -105 -16 -17 -31 -35 -32 -39 -2 -4 -6 -8 -10
-9 -9 -4 -63 -59 -63 -65 0 -11 -209 -200 -275 -249 -15 -10 -39 -29 -53 -41
-15 -13 -33 -23 -40 -23 -7 0 -10 -4 -7 -10 3 -5 -1 -10 -9 -10 -8 0 -21 -6
-28 -12 -20 -19 -86 -68 -92 -68 -6 0 -129 -72 -136 -80 -9 -10 -83 -45 -88
-42 -3 2 -8 0 -11 -5 -6 -9 -134 -73 -145 -73 -3 0 -29 -11 -58 -24 -53 -24
-84 -37 -103 -42 -5 -1 -53 -17 -105 -34 -52 -18 -102 -33 -110 -35 -8 -2 -51
-12 -95 -23 -44 -11 -93 -23 -110 -26 -16 -2 -55 -9 -85 -15 -130 -25 -258
-35 -455 -35 -212 0 -314 5 -320 15 -3 4 -13 5 -24 2 -15 -4 -83 6 -226 32
-16 3 -48 11 -70 17 -22 5 -51 12 -65 14 -14 3 -53 13 -87 24 -34 11 -70 22
-80 23 -10 2 -31 9 -46 15 -16 7 -34 12 -41 12 -7 0 -16 3 -20 7 -3 4 -13 8
-20 9 -7 1 -31 10 -52 19 -22 9 -48 21 -59 25 -112 47 -347 169 -353 183 -2 4
-8 7 -13 7 -11 0 -79 43 -131 83 -21 16 -38 26 -38 22 0 -4 -9 3 -20 16 -10
13 -19 20 -20 16 0 -5 -6 -2 -13 5 -8 7 -28 24 -46 38 -18 14 -42 33 -54 43
-12 10 -37 31 -56 45 -18 15 -64 57 -102 93 -38 36 -71 64 -74 61 -3 -3 -5 1
-5 8 0 7 -23 35 -50 62 -27 27 -50 51 -50 53 0 3 -15 20 -32 39 -18 19 -44 49
-58 67 -14 18 -31 38 -37 45 -7 7 -13 15 -13 19 0 3 -9 15 -20 27 -11 12 -25
34 -32 49 -7 15 -16 25 -20 23 -4 -3 -8 1 -8 10 0 8 -3 16 -7 18 -5 2 -26 32
-47 68 -22 36 -43 67 -48 68 -4 2 -8 12 -8 23 0 10 -4 19 -10 19 -5 0 -12 11
-16 25 -3 14 -9 25 -13 25 -4 0 -13 17 -20 38 -8 20 -17 39 -20 42 -17 14
-130 282 -158 375 -8 28 -18 55 -21 60 -4 6 -7 15 -8 20 -1 6 -15 64 -32 130
-28 115 -46 205 -58 290 -3 22 -7 51 -9 65 -6 36 -18 253 -18 335 0 151 15
330 39 465 2 14 7 41 10 60 3 19 8 42 11 50 3 8 7 24 8 35 11 73 94 348 135
440 28 65 33 80 32 88 -1 4 3 7 10 7 6 0 9 2 6 6 -8 7 141 296 161 314 9 7 30
42 40 66 5 11 21 34 36 52 15 18 23 32 19 32 -4 0 3 8 14 19 12 10 22 23 22
30 0 6 4 11 8 11 4 0 16 14 26 30 9 17 27 39 39 50 11 11 18 20 15 20 -6 0 33
44 134 153 32 34 58 65 58 70 0 4 4 7 8 7 5 0 33 24 63 53 90 86 109 101 263
220 15 12 34 28 42 35 8 7 14 11 14 7 0 -3 15 5 33 19 19 15 39 26 46 26 7 0
10 4 7 9 -5 8 29 25 47 22 4 -1 7 3 7 9 0 5 15 18 34 27 103 53 131 68 136 73
12 13 259 125 295 134 6 2 19 6 30 10 117 44 154 56 205 69 8 2 35 9 60 16 25
7 54 15 65 17 24 5 38 7 136 28 42 8 96 18 120 20 24 3 73 8 109 12 184 22
700 3 736 -27 8 -6 14 -7 14 -2 0 7 22 5 58 -3 31 -8 73 -17 92 -20 19 -3 76
-17 125 -30 50 -14 97 -27 105 -29 8 -2 60 -20 115 -40 55 -20 110 -39 123
-42 12 -3 22 -9 22 -14 0 -5 7 -9 15 -9 18 0 149 -62 153 -72 2 -4 10 -8 17
-8 8 0 41 -16 74 -35 32 -19 62 -35 66 -35 3 0 11 -5 18 -10 24 -20 149 -100
156 -100 4 0 18 -11 31 -25 13 -14 29 -25 36 -25 6 0 14 -7 18 -15 3 -8 10
-15 16 -15 6 0 17 -6 24 -12 7 -7 30 -26 51 -43 105 -84 102 -77 46 -128 -13
-12 -34 -32 -47 -44 -13 -13 -27 -23 -33 -23 -5 0 -12 -9 -16 -20 -3 -11 -10
-19 -14 -17 -4 1 -33 -20 -65 -48 -32 -27 -74 -64 -95 -81 -65 -57 -206 -179
-211 -184 -3 -3 -34 -30 -70 -60 -36 -30 -68 -59 -72 -65 -4 -5 -8 -7 -8 -4 0
4 -17 -10 -38 -30 -66 -62 -101 -91 -113 -91 -5 0 -7 -4 -4 -10 3 -5 1 -10 -5
-10 -6 0 -26 -16 -46 -35 -19 -19 -37 -35 -41 -35 -3 0 -19 -13 -34 -30 -16
-16 -29 -28 -29 -25 0 3 -18 -12 -39 -33 -56 -53 -80 -72 -91 -72 -6 0 -10 -7
-10 -15 0 -8 -6 -15 -14 -15 -8 0 -16 -3 -18 -8 -1 -4 -30 -30 -62 -57 -33
-28 -72 -61 -86 -75 -87 -80 -120 -108 -120 -102 0 4 -7 -4 -16 -16 -8 -12
-19 -22 -25 -22 -5 0 -26 -18 -48 -40 -21 -22 -41 -40 -45 -40 -3 0 -21 -14
-39 -31 -17 -18 -49 -44 -69 -59 -21 -15 -34 -30 -31 -34 3 -3 2 -6 -4 -6 -5
0 -23 -12 -40 -27 -17 -16 -48 -41 -69 -58 -20 -16 -50 -43 -66 -58 -15 -16
-28 -26 -28 -23 0 3 -12 -7 -28 -22 -15 -15 -56 -52 -92 -82 -87 -74 -129
-111 -152 -134 -10 -11 -18 -17 -18 -14 0 3 -15 -8 -34 -25 -18 -18 -65 -61
-104 -96 -39 -35 -69 -68 -66 -73 3 -4 0 -8 -7 -8 -7 0 -9 -3 -6 -7 4 -3 2
-12 -3 -18 -12 -14 -29 -142 -21 -150 3 -3 6 -12 8 -20 2 -8 4 -22 6 -30 2 -8
9 -21 15 -27 7 -7 12 -17 12 -23 0 -18 86 -88 129 -107 68 -29 170 -19 266 27
173 81 205 95 217 95 6 0 19 7 29 16 9 8 26 16 38 17 11 1 21 5 21 9 0 4 7 8
15 8 8 0 31 9 52 19 21 11 59 29 86 40 26 12 66 30 90 40 23 11 85 38 137 61
52 23 113 50 136 61 22 10 46 19 52 19 7 0 12 4 12 8 0 5 6 9 13 9 6 0 41 14
78 31 86 41 122 56 132 54 4 -1 7 2 7 8 0 5 6 10 13 10 8 0 36 11 63 25 27 14
52 25 55 25 4 0 33 12 65 27 33 15 61 28 64 29 3 0 19 7 35 14 17 7 32 14 35
14 3 1 28 13 57 28 28 14 54 24 57 21 3 -4 6 -1 6 5 0 6 7 9 15 6 8 -4 15 -1
15 4 0 6 10 14 23 17 12 4 45 17 72 30 28 12 53 23 58 24 4 0 30 12 57 26 27
14 71 34 97 44 27 11 80 34 118 52 39 18 72 34 75 34 9 3 53 22 115 51 33 15
62 28 65 29 3 1 21 8 40 17 19 8 38 16 43 16 4 1 24 11 44 22 21 11 43 20 50
20 7 0 13 5 13 12 0 6 3 9 6 5 4 -3 23 2 44 13 21 11 40 16 44 13 3 -4 6 -1 6
5 0 7 4 12 9 12 5 0 29 9 55 20 25 12 47 19 49 18 2 -2 12 4 21 12 10 8 23 15
30 16 6 1 40 15 76 32 36 17 94 42 130 57 36 15 68 32 71 37 3 5 9 9 13 8 4
-1 29 7 56 19 28 12 52 22 55 22 2 0 33 14 67 31 35 18 69 33 76 34 6 1 31 11
55 22 23 11 65 30 92 42 28 13 78 36 113 51 34 16 64 29 66 29 2 0 39 17 82
37 43 20 81 37 84 38 3 0 23 8 45 18 76 35 100 46 150 69 28 12 53 22 58 20 4
-1 7 2 7 6 0 4 10 9 22 9 13 1 24 7 26 13 2 5 12 10 23 10 10 0 19 5 19 10 0
6 6 10 14 10 8 0 53 18 102 41 132 62 128 63 201 -47 35 -52 63 -98 63 -103 0
-5 3 -11 8 -13 10 -4 52 -65 52 -75 0 -5 13 -24 30 -43 16 -19 29 -38 30 -42
0 -4 18 -33 39 -65 111 -165 181 -275 181 -283 0 -6 3 -10 8 -10 7 0 42 -55
41 -66 0 -3 9 -14 21 -24 12 -10 22 -22 22 -27 1 -10 29 -54 45 -71 7 -8 11
-18 8 -23 -4 -5 -2 -9 4 -9 5 0 20 -17 32 -37 54 -90 183 -280 208 -306 44
-48 117 -79 186 -80 95 0 164 38 297 165 15 14 28 25 28 22 0 -2 16 11 35 29
19 17 53 48 75 67 73 62 186 159 204 175 6 6 40 35 76 65 36 30 70 60 77 65 6
6 34 30 63 55 29 25 70 62 91 82 22 20 48 40 59 43 10 3 22 15 25 26 4 10 12
19 20 19 7 0 15 7 19 15 3 8 9 15 14 15 5 0 30 19 55 43 25 23 64 58 87 77 24
19 52 43 63 53 11 9 24 17 29 17 5 0 6 5 3 10 -3 6 -2 10 3 10 5 0 22 13 38
28 17 16 38 31 47 35 9 3 17 11 17 16 0 5 9 13 21 16 11 4 18 9 15 12 -3 4 12
19 34 35 22 17 40 35 40 41 0 5 3 8 6 5 3 -3 23 11 45 33 21 21 39 35 39 32 0
-3 11 5 23 18 13 13 45 42 71 64 27 22 58 49 70 60 12 11 42 36 65 55 24 19
58 50 77 69 19 19 34 31 34 27 0 -4 15 9 32 29 18 19 37 35 42 35 4 0 26 19
47 41 22 23 39 39 39 35 0 -3 8 2 18 12 10 9 44 40 77 67 32 28 68 59 79 70
12 11 24 19 28 18 5 -2 8 4 8 13 0 8 4 13 9 9 6 -3 15 4 21 15 6 11 14 20 19
20 5 0 29 19 54 43 25 23 59 53 77 67 18 14 44 36 59 50 46 44 118 100 128
100 10 0 63 -72 63 -85 0 -3 8 -18 19 -33 10 -15 41 -64 67 -110 27 -46 62
-104 77 -130 15 -26 31 -55 34 -64 3 -10 9 -18 14 -18 5 0 9 -4 9 -9 0 -5 23
-46 50 -90 28 -44 50 -85 50 -90 0 -5 7 -14 15 -21 8 -7 12 -16 9 -21 -3 -5
-1 -9 4 -9 4 0 17 -17 28 -37 30 -56 48 -87 54 -93 3 -3 12 -18 20 -35 8 -16
17 -32 20 -35 10 -10 31 -45 36 -62 4 -10 11 -18 17 -18 6 0 7 -3 4 -6 -3 -4
3 -18 13 -32 11 -13 20 -30 20 -38 0 -7 4 -14 8 -16 5 -2 23 -30 42 -63 18
-33 40 -68 48 -77 8 -10 11 -18 6 -18 -5 0 -4 -4 1 -8 13 -9 75 -110 75 -122
0 -5 3 -10 8 -12 4 -2 18 -23 31 -48 13 -25 33 -56 43 -69 10 -13 18 -28 18
-33 0 -11 51 -90 65 -100 5 -4 6 -8 1 -8 -5 0 -2 -8 7 -18 10 -10 14 -22 10
-25 -3 -4 -1 -7 5 -7 7 0 12 -7 12 -15 0 -8 3 -15 8 -15 4 0 12 -10 18 -23 39
-77 62 -116 66 -112 2 3 11 -11 18 -30 8 -19 18 -35 22 -35 5 0 7 -4 4 -9 -3
-5 1 -14 9 -21 8 -7 15 -19 15 -26 0 -8 4 -14 9 -14 5 0 15 -16 22 -35 7 -19
17 -35 21 -35 4 0 8 -6 8 -14 0 -7 7 -19 15 -26 8 -7 12 -16 9 -21 -3 -5 -1
-9 4 -9 5 0 20 -21 33 -47 13 -27 27 -49 32 -51 4 -2 7 -10 7 -18 0 -8 5 -14
10 -14 6 0 10 -4 10 -10 0 -5 24 -50 54 -99 30 -49 51 -92 48 -95 -3 -3 -1 -6
5 -6 5 0 21 -21 34 -47 13 -27 26 -50 29 -53 4 -3 23 -32 43 -66 46 -76 92
-135 101 -127 3 3 6 -1 6 -9 0 -9 14 -21 30 -28 17 -7 30 -16 30 -21 0 -5 9
-9 19 -9 11 0 27 -8 37 -17 10 -10 18 -16 18 -15 1 2 24 0 51 -4 47 -7 122 -8
155 0 45 9 79 21 114 39 46 24 147 117 140 129 -3 4 0 8 5 8 6 0 11 5 11 12 0
6 6 19 14 27 39 43 56 275 23 307 -4 4 -7 13 -7 20 0 7 -16 40 -35 73 -20 33
-36 64 -37 68 -1 5 -8 14 -15 21 -7 7 -13 20 -13 28 0 8 -4 14 -9 14 -5 0 -15
15 -22 33 -7 17 -17 37 -21 42 -24 29 -56 85 -50 85 4 0 2 4 -4 8 -6 4 -21 27
-35 52 -13 25 -27 47 -30 50 -3 3 -19 30 -35 60 -16 30 -32 57 -36 60 -9 7
-67 110 -74 133 -4 9 -10 17 -15 17 -5 0 -9 5 -9 10 0 6 -22 47 -50 91 -27 44
-50 84 -50 88 0 4 -9 17 -20 29 -12 12 -18 22 -15 22 4 0 -3 13 -14 29 -11 15
-25 40 -31 55 -5 14 -14 26 -20 26 -5 0 -10 9 -10 20 0 11 -5 20 -11 20 -5 0
-7 5 -4 10 3 6 2 10 -3 10 -5 0 -15 12 -22 28 -8 15 -21 35 -29 45 -8 9 -10
17 -6 17 5 0 -1 10 -12 23 -11 12 -26 37 -34 55 -8 17 -16 32 -20 32 -3 0 -11
16 -19 35 -8 19 -17 35 -21 35 -4 0 -19 24 -34 53 -15 28 -33 55 -39 59 -6 4
-7 8 -3 8 5 0 -1 13 -12 29 -12 16 -21 34 -21 40 0 6 -4 11 -9 11 -5 0 -15 16
-22 35 -7 19 -17 35 -21 35 -4 0 -8 7 -8 15 0 8 -4 15 -10 15 -5 0 -10 7 -10
15 0 8 -5 15 -11 15 -5 0 -8 4 -5 9 3 5 -1 14 -9 21 -8 7 -15 19 -15 26 0 8
-5 14 -12 14 -6 0 -9 3 -5 6 3 3 -14 37 -39 74 -24 38 -44 73 -44 79 0 6 -5
11 -10 11 -6 0 -9 3 -8 8 1 4 -11 27 -27 52 -16 25 -36 59 -45 75 -44 80 -55
100 -60 105 -11 10 -150 252 -150 261 0 5 -4 9 -8 9 -4 0 -19 22 -33 50 -13
27 -27 50 -31 50 -5 0 -8 7 -8 15 0 8 -4 15 -10 15 -5 0 -10 7 -10 16 0 8 -7
22 -15 31 -8 8 -13 18 -10 23 3 4 -2 10 -10 14 -8 3 -15 12 -15 20 0 8 -7 21
-15 30 -9 8 -22 31 -30 49 -14 33 -13 35 15 62 17 16 30 26 30 23 0 -3 28 21
63 53 34 32 65 59 69 59 4 0 27 20 52 45 26 25 48 45 51 45 2 0 20 15 39 33
19 17 53 48 77 67 23 19 55 47 71 62 15 15 28 25 28 23 0 -2 25 19 56 48 31
29 59 52 63 52 3 1 24 19 47 40 44 43 95 87 109 95 5 3 21 16 36 30 14 14 52
48 84 75 32 28 69 59 82 70 12 11 43 38 69 60 25 22 62 54 80 72 19 17 34 29
34 27 0 -3 11 5 23 18 13 13 48 43 77 68 29 25 76 65 104 89 28 24 57 50 64
59 6 9 12 12 12 8 0 -4 16 9 37 29 20 19 40 35 45 35 5 0 6 5 3 10 -3 6 -1 10
4 10 6 0 19 8 29 18 10 9 40 35 67 56 88 70 142 133 163 188 24 65 21 151 -7
202 -11 20 -18 36 -15 36 18 0 -84 85 -123 102 -43 19 -144 33 -156 22z"/>
<path d="M17950 14758 c-72 -12 -77 -13 -91 -25 -8 -6 -24 -13 -35 -17 -12 -4
-34 -18 -48 -31 -14 -13 -26 -22 -26 -19 0 16 -74 -79 -96 -122 -34 -70 -39
-95 -39 -199 1 -81 4 -97 32 -156 48 -98 155 -196 234 -213 13 -3 65 -15 116
-25 50 -11 129 -30 175 -42 46 -12 89 -22 96 -22 6 0 12 -4 12 -9 0 -5 4 -7 9
-3 5 3 12 1 16 -5 4 -6 10 -8 15 -5 4 3 21 -2 36 -10 16 -8 37 -15 46 -15 9 0
20 -4 23 -10 3 -5 16 -10 28 -10 12 0 37 -9 55 -20 17 -11 32 -17 32 -15 0 3
10 0 23 -7 12 -7 25 -12 29 -13 3 0 10 -3 14 -7 4 -5 15 -8 25 -8 9 0 19 -3
21 -7 2 -5 44 -28 93 -53 50 -24 108 -56 130 -69 22 -14 43 -24 48 -23 4 1 7
-2 7 -7 0 -5 8 -11 18 -15 32 -11 122 -73 115 -79 -3 -4 -1 -7 6 -7 12 0 46
-22 121 -80 48 -37 64 -51 139 -115 52 -45 261 -254 261 -262 0 -2 6 -10 13
-17 6 -7 28 -32 47 -56 19 -24 41 -49 48 -56 6 -7 12 -17 12 -23 0 -6 5 -11
10 -11 6 0 10 -7 10 -16 0 -8 5 -12 10 -9 6 3 10 0 10 -8 0 -7 9 -23 20 -35
11 -12 20 -24 20 -27 0 -3 16 -28 35 -55 19 -27 35 -54 35 -59 0 -6 8 -15 18
-20 9 -6 14 -11 10 -11 -4 0 13 -33 37 -74 24 -41 41 -77 38 -80 -4 -3 -1 -6
6 -6 7 0 9 -4 6 -10 -3 -5 -1 -10 4 -10 6 0 11 -8 11 -17 0 -10 9 -29 20 -43
11 -14 20 -31 20 -38 0 -7 5 -20 10 -30 19 -32 90 -215 90 -232 0 -9 4 -20 8
-25 8 -9 29 -74 37 -114 2 -9 8 -29 14 -45 7 -16 9 -31 6 -34 -2 -3 0 -11 6
-19 6 -7 9 -13 6 -13 -3 0 -1 -15 4 -32 13 -41 17 -62 25 -112 3 -22 7 -43 9
-46 2 -3 6 -34 10 -70 4 -36 9 -68 11 -72 6 -10 17 -228 17 -348 0 -89 -9
-243 -17 -315 -8 -66 -20 -143 -31 -195 -2 -14 -7 -39 -10 -56 -2 -17 -16 -75
-31 -130 -14 -54 -27 -103 -28 -109 -4 -18 -39 -120 -45 -130 -3 -5 -7 -19 -8
-29 -2 -11 -7 -24 -12 -30 -5 -6 -18 -37 -30 -69 -11 -32 -27 -68 -35 -80 -8
-12 -15 -26 -16 -32 0 -13 -62 -138 -71 -145 -3 -3 -9 -15 -13 -27 -4 -13 -12
-23 -17 -23 -6 0 -8 -4 -5 -9 3 -5 -3 -20 -14 -34 -11 -14 -20 -30 -20 -36 0
-5 -6 -14 -14 -18 -8 -4 -15 -12 -16 -18 -3 -17 -34 -65 -42 -65 -4 0 -8 -9
-8 -19 0 -10 -7 -21 -15 -25 -8 -3 -15 -11 -15 -18 0 -7 -14 -28 -30 -46 -16
-19 -32 -42 -35 -53 -4 -11 -11 -17 -16 -14 -5 4 -9 1 -9 -4 0 -6 -11 -24 -24
-39 -96 -111 -120 -137 -128 -140 -4 -2 -8 -11 -8 -19 0 -9 -3 -14 -6 -10 -7
7 -54 -41 -54 -56 0 -6 -2 -8 -5 -5 -3 3 -29 -18 -58 -46 -74 -71 -147 -135
-147 -129 0 3 -9 -5 -20 -18 -10 -13 -19 -21 -20 -17 0 4 -12 -5 -27 -19 -16
-14 -55 -44 -88 -66 -33 -23 -66 -47 -73 -54 -7 -7 -18 -13 -23 -13 -19 0 -24
-3 -37 -21 -7 -11 -17 -19 -21 -19 -5 0 -35 -16 -67 -36 -74 -45 -299 -154
-384 -187 -36 -13 -74 -28 -85 -32 -11 -5 -23 -9 -27 -10 -5 -2 -9 -3 -10 -5
-2 -1 -10 -3 -18 -5 -8 -2 -40 -11 -70 -20 -114 -33 -190 -53 -225 -60 -99
-18 -252 -43 -265 -44 -8 0 -46 -3 -85 -7 -128 -14 -501 -9 -589 7 -23 4 -63
10 -89 13 -43 6 -104 17 -162 30 -11 2 -58 14 -105 26 -47 12 -92 23 -100 25
-20 5 -219 73 -245 84 -11 5 -36 16 -55 24 -19 8 -57 25 -85 38 -27 13 -52 23
-55 24 -3 0 -12 5 -20 10 -8 5 -49 27 -90 49 -41 21 -76 43 -78 48 -2 4 -9 8
-16 8 -11 0 -235 145 -246 159 -3 4 -21 18 -40 31 -19 13 -40 29 -46 35 -6 5
-31 26 -54 45 -24 19 -63 54 -86 76 -24 23 -46 39 -49 36 -3 -3 -5 2 -5 12 0
9 -4 14 -10 11 -5 -3 -10 1 -10 9 0 8 -9 18 -20 21 -11 3 -20 10 -20 14 0 7
-33 44 -143 159 -17 17 -28 32 -24 32 4 0 -6 13 -23 30 -16 16 -30 34 -30 40
0 5 -3 10 -8 10 -4 0 -18 18 -32 40 -14 22 -28 40 -32 40 -5 0 -8 7 -8 15 0 8
-4 15 -8 15 -5 0 -15 12 -23 28 -7 15 -29 48 -46 74 -18 27 -30 48 -26 48 5 0
3 4 -3 8 -7 4 -26 34 -44 67 -18 33 -36 65 -41 71 -5 6 -6 14 -2 17 3 4 1 7
-6 7 -7 0 -9 5 -6 10 3 6 2 10 -3 10 -6 0 -13 12 -17 28 -3 15 -12 34 -19 42
-6 8 -27 53 -45 100 -18 47 -37 94 -41 105 -31 68 -106 333 -124 440 -13 69
-45 155 -58 155 -5 0 -8 6 -8 13 -1 20 -101 111 -155 139 -100 53 -247 55
-355 5 -61 -28 -175 -131 -164 -149 3 -4 1 -8 -4 -8 -9 0 -33 -47 -35 -67 0
-4 -6 -18 -13 -31 -13 -26 -16 -188 -3 -213 4 -8 10 -33 13 -55 8 -70 59 -256
108 -399 26 -77 49 -144 51 -150 7 -25 73 -177 103 -237 18 -38 30 -68 26 -68
-4 0 2 -7 12 -15 11 -8 17 -15 14 -15 -4 0 19 -46 50 -102 30 -57 60 -113 66
-125 6 -13 14 -23 19 -23 4 0 7 -7 7 -15 0 -8 5 -15 11 -15 5 0 8 -4 5 -9 -4
-5 -3 -11 1 -13 5 -1 25 -30 47 -63 35 -55 126 -182 151 -212 5 -7 19 -24 30
-39 30 -40 66 -82 103 -120 18 -19 30 -34 27 -34 -4 0 9 -14 27 -30 18 -16 30
-30 27 -30 -3 0 24 -29 59 -65 36 -36 68 -65 71 -65 3 0 15 -13 26 -29 11 -17
21 -28 23 -27 3 3 69 -55 139 -121 13 -13 26 -23 29 -23 3 0 19 -13 37 -30 18
-16 37 -30 44 -30 6 0 14 -8 17 -18 3 -9 18 -23 33 -29 16 -7 40 -24 56 -38
15 -14 27 -22 27 -18 0 4 4 3 8 -3 9 -15 222 -154 292 -190 30 -16 57 -32 58
-36 2 -5 8 -8 13 -8 5 0 21 -8 36 -17 14 -10 32 -18 40 -19 8 -2 24 -11 35
-21 11 -10 21 -17 22 -15 0 2 35 -12 76 -31 41 -19 104 -47 140 -61 36 -15 74
-31 85 -36 20 -9 231 -80 250 -85 6 -1 17 -4 25 -7 46 -17 278 -73 349 -84 18
-3 43 -8 55 -10 11 -2 37 -7 56 -9 87 -13 116 -18 134 -21 136 -25 751 -25
876 1 14 3 47 7 75 11 42 5 174 28 280 49 17 3 52 12 78 20 27 8 52 14 55 14
4 -1 10 0 15 1 4 1 10 3 15 4 4 1 54 17 112 36 58 18 111 33 118 33 6 0 12 4
12 7 0 4 14 10 31 14 17 3 45 12 62 20 28 12 62 26 77 31 3 1 18 7 33 13 16 7
33 12 38 12 5 0 9 5 9 11 0 5 4 8 9 4 5 -3 12 -1 16 5 3 5 13 10 22 10 9 0 24
7 34 16 9 8 26 16 38 17 11 1 21 4 21 7 0 3 20 14 45 24 25 11 45 22 45 26 0
4 12 11 26 14 15 4 33 14 41 22 8 8 19 12 24 9 5 -4 9 -2 9 3 0 7 30 26 111
67 10 5 19 13 19 17 0 5 5 8 11 8 12 0 101 59 111 74 4 6 8 7 8 3 0 -9 73 43
78 56 2 4 10 7 18 7 8 0 14 3 14 8 1 4 24 23 51 42 28 19 63 46 79 60 15 14
47 41 71 60 113 91 429 407 429 428 0 2 11 15 26 28 14 13 21 24 17 24 -4 0 0
5 10 11 9 5 17 17 17 25 0 8 4 13 9 9 5 -3 12 3 15 12 3 10 16 30 28 45 52 61
57 68 50 68 -4 0 -2 4 4 8 11 7 134 184 147 213 4 8 16 28 27 44 11 17 24 40
30 53 5 13 17 30 25 38 8 9 15 24 15 34 0 10 4 20 9 22 7 2 88 164 146 293 28
63 73 181 77 200 1 11 5 22 8 25 5 4 54 156 65 200 2 8 4 17 6 20 1 3 3 10 4
15 1 6 7 30 14 55 7 25 15 56 17 70 3 14 7 32 10 40 3 8 8 26 10 40 3 14 9 48
15 76 11 55 15 78 24 139 6 41 8 61 20 173 4 35 9 80 11 100 5 50 5 507 -1
557 -2 22 -7 65 -10 95 -3 30 -7 66 -9 80 -3 14 -7 48 -10 75 -3 28 -8 59 -10
70 -2 11 -11 58 -20 105 -20 104 -21 110 -41 185 -9 33 -25 96 -37 140 -11 44
-24 85 -28 90 -4 6 -18 44 -30 85 -13 41 -27 82 -31 90 -15 29 -34 85 -31 93
1 4 -2 7 -6 7 -4 0 -14 17 -21 38 -21 58 -140 299 -188 378 -24 39 -43 77 -43
83 0 6 -4 11 -9 11 -5 0 -14 14 -21 30 -7 17 -16 30 -21 30 -5 0 -9 7 -9 15 0
8 -4 15 -10 15 -5 0 -10 5 -10 10 0 12 -41 73 -52 78 -5 2 -8 8 -8 13 0 10
-10 24 -42 60 -10 10 -18 24 -18 29 0 6 -4 10 -10 10 -5 0 -10 7 -10 16 0 8
-4 13 -9 9 -5 -3 -11 1 -13 8 -3 16 -53 79 -115 147 -24 26 -41 49 -38 52 3 2
-6 11 -20 18 -14 7 -25 17 -25 21 0 12 -239 244 -335 324 -27 22 -54 46 -61
53 -7 6 -15 12 -18 12 -5 0 -34 22 -60 46 -6 5 -19 13 -28 17 -10 3 -18 11
-18 16 0 5 -9 13 -20 16 -11 4 -32 17 -45 31 -13 13 -31 24 -40 24 -8 0 -15 4
-15 10 0 5 -18 19 -40 30 -22 11 -40 25 -40 31 0 6 -4 7 -10 4 -5 -3 -10 -1
-10 4 0 6 -7 11 -15 11 -9 0 -18 6 -21 13 -3 8 -10 14 -17 14 -15 1 -96 42
-83 43 13 0 -247 130 -261 130 -7 0 -13 4 -13 9 0 5 -10 11 -23 15 -13 3 -45
15 -73 28 -27 12 -53 23 -59 24 -5 1 -43 16 -82 33 -40 16 -73 27 -73 24 0 -3
-6 -1 -12 4 -7 6 -40 18 -73 28 -33 9 -67 20 -75 23 -43 15 -272 72 -355 87
-104 19 -150 22 -205 13z"/>
</g>
</svg>
